<svg width="24" height="24" viewBox="0 0 24 24" fill="none" xmlns="http://www.w3.org/2000/svg">
<path d="M3.41382 0.991348C3.8204 1.02608 4.73175 1.00009 5.1687 1.00014H8.70679L20.2244 1.00209L20.2205 22.9904L9.71069 22.9757H5.87476C5.06579 22.9757 4.22438 22.9637 3.4187 22.9913C3.38439 22.0528 3.40898 20.9887 3.40894 20.0402V14.632L3.41382 0.991348ZM7.29272 4.87807C7.28438 6.53493 7.27638 8.21526 7.29272 9.87123L7.29663 19.0988C8.53026 19.1177 9.7903 19.1055 11.0261 19.1056L16.3337 19.0997L16.3347 14.004C16.3345 12.4565 16.3505 10.8828 16.3337 9.33803C16.3388 7.86364 16.3492 6.34738 16.3337 4.87416L7.29272 4.87807Z" fill="black"/>
<rect opacity="0.3" x="7.28322" y="10.0502" width="9.05882" height="9.05882" fill="black"/>
</svg>
