<svg width="24" height="24" viewBox="0 0 24 24" fill="none" xmlns="http://www.w3.org/2000/svg">
<path d="M6.2525 2.29982C7.33705 1.67365 8.42639 1.76315 9.30719 2.19923C10.1442 2.61379 10.7869 3.32997 11.1783 4.00782C11.182 4.01417 11.1865 4.02092 11.19 4.02735L14.6041 10.2568C14.8975 9.82469 15.2682 9.41791 15.6949 9.08398C16.562 8.40562 17.7709 7.94423 19.1187 8.30273C20.0625 8.55396 20.6751 9.17174 20.9293 10.0039C21.1566 10.7488 21.0723 11.5815 20.9039 12.3262C20.5644 13.8263 19.7411 15.5353 19.1636 16.7519C18.1461 18.8959 16.5837 20.9345 14.6656 22.2089C12.7211 23.5006 10.3591 24.0285 7.92243 22.9794C6.53406 22.3816 5.11984 21.3547 4.02984 20.1396C2.95362 18.9398 2.08969 17.4375 2.0191 15.8711C2.00256 15.5011 2.07428 15.0786 2.21051 14.707C2.32007 14.4085 2.5283 13.9859 2.9107 13.6933L3.08551 13.5761C3.52116 13.3247 4.00247 13.2136 4.47613 13.2246C4.56029 12.337 5.00243 11.5023 5.92926 10.9639C6.24585 10.78 6.59784 10.6401 6.96442 10.5586L5.18121 7.4707C4.77623 6.76922 4.50913 5.83092 4.59723 4.89063C4.68916 3.91106 5.17521 2.92193 6.2525 2.29982ZM8.4195 3.99219C8.0585 3.81354 7.68432 3.78292 7.2525 4.03223C6.81383 4.28569 6.62867 4.64873 6.58844 5.07715C6.54458 5.54507 6.6839 6.07275 6.91364 6.4707L9.6861 11.2724C9.72481 11.3395 9.75419 11.4094 9.77594 11.4805C9.83692 11.5617 9.89457 11.649 9.94782 11.7412C10.2235 12.2194 10.0596 12.8313 9.58161 13.1074C9.10351 13.3833 8.49163 13.219 8.2154 12.7412C8.13017 12.5938 8.00116 12.508 7.78668 12.4844C7.54655 12.458 7.22985 12.5217 6.93414 12.6933C6.47716 12.9588 6.21644 13.6335 6.75055 14.5586C6.80212 14.648 6.8383 14.7422 6.85993 14.8379C6.88169 14.9341 6.88921 15.0325 6.88239 15.1289C6.88011 15.1605 6.87591 15.1924 6.87067 15.2236C6.84953 15.3497 6.80398 15.4712 6.73688 15.581C6.71999 15.6086 6.70182 15.6361 6.68219 15.6621C6.604 15.7655 6.50365 15.8558 6.38434 15.9248C6.26484 15.9937 6.13622 16.0358 6.00739 16.0517C5.97532 16.0557 5.94278 16.0567 5.91071 16.0576C5.78181 16.0609 5.65369 16.0399 5.53375 15.9951C5.50399 15.984 5.47451 15.9719 5.44586 15.958C5.38803 15.9299 5.33274 15.8956 5.28082 15.8564C5.22884 15.8172 5.17952 15.7725 5.13531 15.7226C5.0915 15.6731 5.05248 15.618 5.01813 15.5586C4.84584 15.2603 4.44767 15.1429 4.13824 15.2851C4.12447 15.3096 4.10645 15.3465 4.08844 15.3955C4.06324 15.4643 4.04336 15.542 4.03082 15.6172C4.01804 15.6941 4.01585 15.7518 4.01715 15.7812C4.05847 16.6992 4.59721 17.777 5.5191 18.8046C6.42748 19.8172 7.60728 20.6662 8.71344 21.1425C10.3938 21.8659 12.0425 21.5504 13.5592 20.5429C15.1019 19.5179 16.4527 17.7999 17.357 15.8945C17.965 14.6134 18.6735 13.1231 18.9537 11.8847C19.0949 11.2602 19.0921 10.8367 19.0162 10.5879C18.967 10.4271 18.8907 10.3115 18.6051 10.2353C18.0234 10.0806 17.4482 10.2526 16.9283 10.6592C16.3901 11.0803 16.0271 11.6697 15.9146 12.0888C15.8847 12.2004 15.8355 12.3022 15.774 12.3926L15.8941 12.6133C16.1594 13.0975 15.9828 13.7052 15.4986 13.9707C15.0144 14.236 14.4067 14.0583 14.1412 13.5742L9.44196 4.99903C9.19845 4.58079 8.82143 4.19137 8.4195 3.99219ZM16.8004 1.13869C16.8688 0.95384 17.1302 0.953926 17.1988 1.13869L17.5113 1.98243C17.7695 2.67996 18.3197 3.22996 19.0172 3.48829L19.8609 3.80079C20.0458 3.86929 20.0458 4.13073 19.8609 4.19922L19.0172 4.51172C18.3197 4.77005 17.7695 5.32004 17.5113 6.01758L17.1988 6.86133C17.1302 7.04606 16.8689 7.04614 16.8004 6.86133L16.4879 6.01758C16.2296 5.31999 15.6796 4.76998 14.982 4.51172L14.1383 4.19922C13.9538 4.13058 13.9538 3.86944 14.1383 3.80079L14.982 3.48829C15.6796 3.23003 16.2296 2.68002 16.4879 1.98243L16.8004 1.13869Z" fill="black"/>
</svg>
